<svg width="523" height="427" viewBox="0 0 523 427" fill="none" xmlns="http://www.w3.org/2000/svg">
<g clip-path="url(#clip0_310_312)">
<g opacity="0.2">
<path d="M359.621 367.289C358.053 362.66 353.129 360.164 348.442 361.512C333.16 365.867 317.039 368.218 300.371 368.218C214.77 368.218 143.283 306.538 128.165 225.326C127.272 220.533 122.84 217.235 117.989 217.891H117.916C112.81 218.602 109.254 223.394 110.184 228.46C126.761 318.346 205.615 386.439 300.371 386.439C318.79 386.439 336.588 383.87 353.475 379.06C358.508 377.638 361.335 372.318 359.657 367.38L359.621 367.289V367.289ZM300.371 18.2214C306.699 18.2214 312.954 18.5494 319.1 19.2236C323.951 19.752 328.382 16.4539 329.148 11.6252V11.5524C329.969 6.45037 326.376 1.65815 321.252 1.1115C314.395 0.382649 307.428 0 300.371 0C255.163 0 213.548 15.5246 180.613 41.5083C176.564 44.6971 176.09 50.6555 179.482 54.5366L179.573 54.6459C182.783 58.3267 188.309 58.764 192.138 55.7392C221.955 32.2519 259.558 18.2214 300.371 18.2214ZM430.086 62.7545L429.977 62.8638C426.53 66.3259 426.475 71.8287 429.758 75.4365C458.152 106.54 475.495 147.885 475.495 193.238C475.495 238.591 458.061 280.136 429.539 311.276C426.256 314.866 426.293 320.368 429.721 323.831L429.831 323.94C433.515 327.657 439.533 327.475 443.07 323.63C474.546 289.265 493.731 243.492 493.731 193.238C493.731 142.983 474.637 97.448 443.289 63.1189C439.77 59.256 433.752 59.0555 430.068 62.7727L430.086 62.7545Z" fill="#0078D9"/>
</g>
<path d="M109.054 311.349C117.442 317.253 118.938 323.794 135.041 328.113C151.38 332.504 169.58 323.229 176.747 315.449C171.623 302.092 135.989 310.347 109.054 311.349V311.349Z" fill="#2E3192"/>
<path d="M76.1551 274.888C65.7604 275.015 61.2924 277.093 52.5755 282.869C43.8585 288.645 22.5767 296.863 22.5767 296.863C20.9901 299.833 25.0751 304.242 26.9352 306.028C27.4458 306.52 28.1753 306.63 28.7953 306.302C31.8408 304.716 41.3237 300.033 49.0741 298.393C58.4476 296.407 65.6874 295.186 72.6537 292.18L79.62 289.192L76.1368 274.87L76.1551 274.888Z" fill="black"/>
<path d="M112.829 297.537C107.139 303.095 100.264 312.588 94.337 324.778C88.4102 336.95 79.7114 349.796 79.7114 349.796C79.7114 349.796 81.3527 352.711 84.0881 354.206C86.8236 355.7 89.5773 354.698 89.5773 354.698C99.7167 336.148 109.327 329.115 115.509 320.441C121.691 311.768 127.746 303.769 127.746 303.769L112.829 297.555V297.537Z" fill="black"/>
<path d="M25.9505 295.551C23.7439 294.002 20.662 295.186 16.65 297.154C12.638 299.122 8.35247 302.165 8.35247 302.165C8.37071 306.575 9.64725 308.798 6.76591 312.697C3.88457 316.597 -1.53162 322.646 0.437901 327.402C2.40743 332.158 7.69596 337.351 9.86609 336.403C12.0362 335.456 14.5711 332.03 16.7777 326.345C18.9843 320.66 22.1027 316.214 24.3822 313.135C26.6618 310.055 29.6708 307.723 30.6373 306.429C31.6038 305.135 29.2878 302.329 29.2878 302.329L25.9505 295.569V295.551Z" fill="#F2B52F"/>
<path d="M14.48 329.078C13.1487 323.521 7.22189 322.992 5.63533 323.229C3.6111 326.655 4.8147 330.008 7.44073 332.65C10.0668 335.292 11.5986 334.854 14.48 329.078V329.078Z" fill="black"/>
<path d="M79.7111 349.778C78.471 348.867 77.7781 348.648 76.7568 350.507C75.7356 352.365 69.5899 360.109 68.9152 361.348C68.2405 362.587 71.8877 365.047 70.4835 368.801C69.0793 372.554 69.3346 379.752 73.0913 384.362C77.5592 389.865 83.1578 389.209 85.7109 383.05C88.264 376.891 84.9085 370.076 86.3127 366.341C87.3521 363.571 90.6712 357.467 90.9082 356.465C91.1453 355.463 91.6741 354.297 89.577 354.679C87.4798 355.062 79.7111 349.778 79.7111 349.778V349.778Z" fill="#F2B52F"/>
<path d="M54.6363 275.27C50.4237 262.188 52.3021 253.022 61.0008 256.411C69.6995 259.801 78.1065 265.358 78.1065 265.358L54.6181 275.27H54.6363Z" fill="#2E3192"/>
<path d="M174.431 123.796C171.914 124.543 171.367 124.871 170.838 126.93L166.37 144.313L158.127 128.643L162.413 113.774L171.258 117.2L174.431 123.796V123.796Z" fill="#FA8793"/>
<path d="M54.6362 275.27C61.9855 300.635 70.2101 310.219 96.9081 313.353C100.428 313.772 104.33 313.827 108.452 313.681C135.387 312.679 171.622 302.092 176.747 315.449C184.06 298.539 165.987 283.343 153.805 269.239C140.073 253.332 155.483 212.443 151.544 195.096C151.544 195.096 135.478 178.005 117.497 173.194C110.056 178.223 94.5921 190.523 89.9418 202.403C85.2915 214.284 74.678 252.384 68.4594 262.005C62.2408 271.626 54.6362 275.27 54.6362 275.27V275.27Z" fill="#0078D9"/>
<path d="M117.296 128.734C124.755 130.083 131.119 126.602 141.915 128.771C132.633 125.782 122.895 129.135 116.585 124.835C109.856 120.243 111.661 115.833 111.661 115.833C108.215 119.241 109.801 127.368 117.296 128.716V128.734Z" fill="#2E3192"/>
<path d="M172.99 161.551C172.99 161.551 169.434 163.555 168.705 166.416C167.975 169.277 168.668 175.563 168.249 176.875C167.829 178.187 166.553 179.663 166.206 181.011C165.86 182.36 164.2 191.616 163.051 192.582C161.902 193.548 143.885 201.474 142.043 201C140.201 200.526 131.192 195.698 129.733 193.712C128.275 191.725 117.205 174.36 117.497 173.176C117.789 171.992 134.201 149.834 134.201 149.834L140.092 126.948L158.127 128.625L172.99 161.551V161.551Z" fill="white"/>
<path d="M109.564 139.448C108.926 142.2 108.142 148.031 111.369 152.039C111.606 152.331 111.825 152.604 112.026 152.859C115.801 157.506 116.53 157.834 116.53 157.834C116.53 157.834 123.916 154.9 124.354 153.934C124.773 152.95 136.7 149.926 136.7 149.926L148.918 131.722C144.012 127.768 130.445 126.784 125.995 130.119C121.527 133.472 123.515 133.435 121.527 133.472C119.539 133.472 116.129 133.508 115.783 134.857C115.436 136.205 114.287 137.899 114.287 137.899L109.983 137.863C109.983 137.863 109.783 138.446 109.564 139.43V139.448Z" fill="white"/>
<path d="M136.682 185.585V185.548" stroke="white" stroke-width="0.3" stroke-miterlimit="10"/>
<path d="M171.531 130.848L168.303 160.385L175.215 164.557L182.983 166.051C183.676 167.345 188.071 169.641 188.071 169.641C188.546 169.331 189.311 168.457 190.205 167.272C192.813 163.847 196.606 157.688 198.576 154.244C199.36 152.896 199.834 151.966 199.87 151.766C199.98 150.91 195.329 150.673 195.329 150.673C195.329 150.673 195.111 149.598 195.019 147.703C194.91 145.771 189.33 141.963 183.549 138.464C177.768 134.948 176.801 131.54 171.513 130.884L171.531 130.848Z" fill="white"/>
<path d="M116.585 124.853C123.333 129.445 134.001 125.29 143.849 129.518C153.715 133.727 154.025 143.566 156.815 160.931C161.137 163.063 172.99 161.569 172.99 161.569C173.045 161.277 173.027 160.913 172.972 160.494C172.425 155.811 166.371 144.313 166.371 144.313L158.128 128.643L159.86 122.666C159.86 122.666 142.736 120.808 133.819 122.703C124.901 124.634 118.117 121.518 111.662 115.852C111.662 115.852 109.856 120.261 116.585 124.853Z" fill="#0078D9"/>
<path d="M93.042 167.728L106.446 196.499L150.742 174.944L139.071 146.245L138.742 145.48L93.042 167.728Z" fill="#F5C459"/>
<path d="M106.446 196.499C107.795 199.306 109.655 201.656 112.099 201.037L157.799 179.626C157.27 179.626 156.778 179.59 156.322 179.517C156.322 179.517 156.31 179.517 156.286 179.517C155.921 179.462 155.593 179.39 155.283 179.317C154.772 179.189 154.334 178.989 153.933 178.806C153.496 178.57 153.131 178.333 152.803 178.041C151.836 177.221 151.198 176.164 150.778 174.944L106.482 196.499H106.446Z" fill="black"/>
<path d="M156.304 179.517C156.304 179.517 156.286 179.517 156.268 179.517C156.268 179.517 157.033 179.809 157.781 179.626C159.167 179.28 162.851 153.26 162.851 153.26L159.605 153.369C159.605 153.369 156.961 178.679 156.304 179.517Z" fill="black"/>
<path d="M155.885 150.837L155.283 179.317C155.593 179.39 155.921 179.462 156.286 179.517C156.286 179.517 156.298 179.517 156.322 179.517C156.997 178.679 159.623 153.369 159.623 153.369L159.878 150.91L155.885 150.837Z" fill="#B3B3B3"/>
<path d="M149.812 148.905L153.897 178.806C154.298 179.007 154.736 179.189 155.246 179.335L155.848 150.855L155.903 148.741L149.775 148.923L149.812 148.905Z" fill="#CCCCCC"/>
<path d="M144.961 146.791L152.766 178.041C153.094 178.333 153.459 178.57 153.897 178.806L149.812 148.905L149.338 146.354L144.961 146.791Z" fill="#E6E6E6"/>
<path d="M139.07 146.245L150.76 174.944C151.179 176.164 151.836 177.239 152.784 178.041L144.979 146.792L144.414 144.587L139.07 146.245V146.245Z" fill="#F2F2F2"/>
<path d="M86.477 153.898C92.0209 158.198 107.121 169.969 113.54 174.306C119.977 178.643 123.588 184.783 124.919 187.279C126.25 189.794 128.074 193.329 128.731 193.602C129.405 193.876 131.083 194.532 131.357 193.475C132.524 193.602 134.548 193.274 134.84 192.145C137.283 192.108 138.177 191.142 138.396 190.268C138.596 189.448 136.864 186.022 136.663 185.585C137.028 186.004 140.438 190.14 141.241 190.432C142.098 190.742 143.502 189.612 143.776 188.573C144.049 187.535 140.511 182.815 139.982 182.032C142.681 182.36 144.961 182.688 146.073 181.941C147.204 181.212 148.043 179.298 147.696 178.934C147.332 178.551 143.301 179.007 142.262 178.734C141.223 178.46 139.563 178.205 138.505 177.932C137.448 177.659 128.621 174.452 124.846 172.174C121.071 169.896 107.722 157.305 105.096 154.025L112.026 152.859C111.826 152.604 111.607 152.313 111.37 152.039C108.142 148.031 108.926 142.2 109.564 139.448C104.859 139.922 91.2732 143.475 87.17 145.644C82.8115 147.921 80.9332 149.616 86.477 153.898V153.898Z" fill="#FA8793"/>
<path d="M170.857 126.912L166.389 144.295C166.389 144.295 172.443 155.811 172.99 160.458C174.54 157.907 182.108 160.093 184.406 161.241C185.737 156.576 181.379 152.531 179.938 145.68C178.479 138.829 176.929 129.736 170.857 126.894V126.912Z" fill="#0078D9"/>
<path d="M84.8723 379.952C82.5563 377.037 78.0884 375.051 74.5141 375.506C72.7269 380.991 76.0277 384.289 79.7297 384.963C82.4104 385.437 83.9058 383.925 84.8723 379.952Z" fill="black"/>
<path d="M190.224 167.254C193.233 167.892 194.874 169.131 197.208 170.607C199.907 172.301 215.59 182.068 232.404 184.4C249.218 186.733 255.984 188.555 257.388 189.703C258.811 190.851 261.637 193.93 261.637 193.93C262.184 188.373 262.458 188.427 267.199 191.671C269.041 192.928 270.664 194.477 272.105 195.898C272.725 196.518 273.29 197.083 273.855 197.593C275.387 199.032 276.737 200.071 278.05 200.162C278.907 200.235 279.6 200.253 280.165 200.217C281.551 200.144 282.135 199.706 282.39 198.577C281.515 198.103 280.712 197.502 279.983 196.864C278.105 195.206 276.773 193.22 276.463 191.871C276.463 191.871 277.612 191.944 279.217 192.072C281.879 192.29 285.819 192.618 287.752 192.965C290.815 193.511 294.444 195.096 296.104 193.985C297.745 192.855 297.271 192.309 297.271 192.309C292.219 190.177 289.138 189.794 285.363 189.12C281.569 188.446 276.208 187.225 271.995 184.947C267.765 182.669 253.285 178.715 243.474 175.363C233.663 172.01 223.414 170.698 217.523 167.127C212.6 164.156 201.968 156.631 198.612 154.226C196.643 157.67 192.85 163.81 190.242 167.254H190.224Z" fill="#FA8793"/>
<path d="M261.637 193.93C263.151 195.734 264.3 196.171 266.762 196.591C269.205 196.991 268.986 198.577 269.078 200.071C269.169 201.565 268.986 202.567 270.336 203.478C271.704 204.408 271.448 203.351 271.704 199.761C271.85 197.957 271.923 196.609 272.105 195.916C270.664 194.495 269.041 192.965 267.199 191.689C262.458 188.446 262.184 188.391 261.637 193.948V193.93Z" fill="#CF584C"/>
<path d="M273.855 197.593C274.785 200.381 275.952 205.3 277.63 205.883C279.764 206.612 279.782 203.424 280.092 200.964C280.128 200.745 280.128 200.49 280.147 200.217C279.581 200.253 278.888 200.235 278.031 200.162C276.718 200.071 275.369 199.032 273.837 197.593H273.855Z" fill="#CF584C"/>
<path opacity="0.3" d="M168.249 176.893C165.076 179.28 152.821 187.644 150.359 190.213C147.897 192.782 148.517 194.86 153.769 191.343C159.021 187.826 166.188 181.029 166.188 181.029" fill="#0078D9"/>
<path d="M191.81 106.595C189.767 112.062 188.546 113.61 188.491 115.469C188.436 117.327 189.239 119.295 189.239 119.295L186.722 119.733L186.084 121.737C186.084 121.737 183.111 124.452 182.728 125.91C182.345 127.367 181.616 127.896 177.987 126.602C174.358 125.308 173.063 124.252 170.018 121.19C166.972 118.129 166.607 111.57 166.607 111.57C166.607 111.57 165.167 104.117 168.741 101.438C172.315 98.7599 188.181 95.8809 188.181 95.8809C193.506 101.329 193.05 103.279 191.81 106.595V106.595Z" fill="#FA8793"/>
<path d="M187.251 98.1586C188.327 101.912 186.43 107.907 183.202 108.271C179.975 108.636 178.351 107.506 176.637 108.144C174.631 104.755 172.133 103.753 170.218 105.538C168.303 107.324 168.65 112.572 171.112 114.157C171.112 114.157 171.02 118.694 164.182 121.5C157.343 124.306 153.714 127.258 141.97 125.4C130.226 123.541 130.353 130.556 130.353 130.556C119.849 127.659 118.317 117.765 118.627 112.809C118.627 112.809 124.427 103.825 136.262 106.868C148.097 109.911 152.237 100.455 157.708 94.2957C163.179 88.1369 171.495 86.916 178.37 89.5763C185.208 92.2184 187.251 98.1404 187.251 98.1404V98.1586Z" fill="black"/>
<path d="M187.251 98.1586C187.251 98.1586 191.847 102.022 191.409 105.083C190.971 108.144 189.312 110.276 189.786 111.57C192.996 110.021 196.46 106.96 195.312 102.678C194.163 98.3955 192.138 95.5165 188.309 93.002C184.479 90.4874 180.923 90.2323 177.385 90.3417L187.233 98.1586H187.251Z" fill="black"/>
<path d="M186.558 114.758C186.996 112.499 186.266 111.533 184.588 110.968C182.911 110.403 182.272 110.768 182.272 110.768C181.999 112.936 183.367 114.084 184.096 114.266C184.826 114.449 186.558 114.758 186.558 114.758V114.758Z" fill="white"/>
<path d="M185.391 114.558C185.573 114.376 185.719 114.139 185.847 113.847C186.138 113.082 185.92 112.28 185.372 112.098C184.807 111.898 184.132 112.335 183.859 113.1C183.731 113.465 183.695 113.829 183.768 114.139" fill="black"/>
<path d="M186.102 121.719C186.102 121.719 182.856 120.717 182.017 120.152C182.017 120.152 181.871 123.523 184.023 123.869C184.862 122.94 186.102 121.719 186.102 121.719Z" fill="white"/>
<path opacity="0.5" d="M174.431 109.656C174.905 107.834 173.319 106.176 171.969 106.413C170.62 106.65 170.164 108.344 170.802 110.003C171.44 111.661 171.896 113.537 172.006 112.153C172.115 110.768 172.407 109.857 173.465 110.586C174.194 111.078 174.285 110.294 174.449 109.638L174.431 109.656Z" fill="#CF584C"/>
<path d="M188.856 111.205C189.075 110.513 189.184 109.82 189.093 109.492C189.002 109.164 186.467 107.524 184.844 108.18C183.221 108.836 183.877 108.727 183.877 108.727C183.877 108.727 185.719 108.982 186.813 109.474C187.908 109.966 188.856 111.205 188.856 111.205Z" fill="#333333"/>
<path d="M82.319 244.203C80.9695 255.901 85.1274 289.811 107.029 303.331" stroke="#2E3192" stroke-width="0.25" stroke-miterlimit="10"/>
<path d="M77.5593 252.476C74.3497 266.324 71.596 283.78 81.1883 298.12" stroke="#2E3192" stroke-width="0.25" stroke-miterlimit="10"/>
<path d="M300.353 188.61L289.611 182.433L295.793 193.165L289.611 203.897L300.353 197.72L311.094 203.897L304.912 193.165L311.094 182.433L300.353 188.61Z" fill="white"/>
<path d="M293.678 294.786C286.566 294.786 280.201 293.638 280.201 293.638C276.937 295.952 278.469 302.475 280.201 305.172C281.934 307.869 300.352 307.923 300.352 307.923L293.678 294.786V294.786Z" fill="white"/>
<path d="M421.934 247.465C422.025 244.003 419.217 243.164 416.281 243.31C413.345 243.456 411.229 244.003 410.39 243.584C409.551 243.164 398.063 230.282 376.635 221.609C355.207 212.935 347.639 214.338 345.67 216.142C343.7 217.946 339.086 224.542 339.925 229.99C340.764 235.439 354.642 290.595 354.642 290.595L371.583 286.677C371.583 286.677 370.325 279.261 369.194 275.052C368.064 270.843 370.033 266.087 369.614 262.042C369.194 257.997 368.629 252.111 364.854 246.79C372.276 255.464 394.835 275.343 401.144 274.779C407.454 274.214 431.964 254.207 431.964 254.207L421.934 247.446V247.465Z" fill="#F2B52F"/>
<path d="M290.541 293.036C290.541 293.036 287.532 293.255 290.012 301.291C292.347 308.853 298.365 318.874 298.365 318.874C321.196 321.79 336.971 318.473 351.086 313.481C365.201 308.506 373.918 307.267 394.671 307.267C415.424 307.267 449.051 298.557 465.665 286.531L482.26 274.505L477.208 267.909L429.466 252.53L428.846 252.33C423.375 253.787 415.624 258.051 407.618 262.971C405.248 264.429 402.859 265.941 400.488 267.454C398.099 268.984 395.856 270.442 393.722 271.79C386.555 276.327 380.428 279.662 373.097 280.3C372.131 280.391 371.273 280.5 370.489 280.646C364.252 281.757 362.848 284.563 353.931 287.807C352.837 288.189 351.615 288.59 350.265 289.009C336.57 293.164 305.769 294.84 290.559 293.036H290.541Z" fill="#F2B52F"/>
<path d="M349.463 314.027C349.992 313.863 350.539 313.663 351.068 313.481C365.183 308.506 373.9 307.267 394.653 307.267C415.405 307.267 449.033 298.557 465.647 286.531L482.242 274.505L477.19 267.909L465.628 264.192C461.726 267.909 452.626 276.4 451.86 276.273C450.893 276.109 441.338 269.002 441.009 269.804C440.681 270.624 447.976 277.566 447.647 278.55C447.319 279.516 429.83 294.567 416.883 296.025C403.935 297.464 378.349 301.509 367.663 304.589C361.918 306.247 354.806 310.474 349.463 314.027Z" fill="#4D4D4D"/>
<path d="M361.499 265.431C364.599 270.223 366.496 272.865 369.322 275.58C369.286 275.398 369.231 275.234 369.195 275.07C368.83 273.704 368.793 272.264 368.903 270.806C368.921 270.351 368.976 269.913 369.031 269.458C369.067 269.002 369.14 268.565 369.195 268.11C369.249 267.672 369.322 267.217 369.377 266.779C367.809 265.686 365.839 264.046 363.505 261.586C356.976 254.735 357.815 259.746 361.499 265.431Z" fill="#4D4D4D"/>
<path d="M369.34 275.598L369.322 275.58" stroke="white" stroke-width="0.25" stroke-miterlimit="10"/>
<path d="M364.854 246.809C370.38 253.277 384.349 265.978 393.704 271.79C395.838 270.442 398.081 268.984 400.47 267.454C402.84 265.941 405.229 264.429 407.6 262.971C403.205 263.044 396.202 263.19 394.142 262.096C391.625 260.748 370.526 247.21 367.681 245.187C364.836 243.183 358.471 234.819 356.794 234.655C355.134 234.491 359.347 239.885 364.854 246.809Z" fill="#4D4D4D"/>
<path d="M409.88 257.25C411.248 257.395 413.345 248.704 413.691 243.511C412.105 243.693 410.956 243.875 410.39 243.583C410.719 248.376 408.366 257.067 409.88 257.25Z" fill="#4D4D4D"/>
<path d="M453.702 165.013C453.1 162.225 451.769 160.767 450.419 162.353C449.07 163.938 450.547 164.776 450.547 164.776C447.994 164.776 448.705 161.66 449.234 159.911C449.763 158.162 451.349 156.504 454.686 156.959C458.024 157.415 465.045 156.431 467.926 156.504C470.807 156.576 476.771 158.326 477.901 163.154C479.032 167.983 477.974 176.456 476.917 179.554C475.859 182.651 474.655 183.945 474.655 183.945L468.145 182.943L453.939 167.928L453.702 165.013V165.013Z" fill="black"/>
<path d="M458.333 210.985C458.333 210.985 474.436 209.655 476.077 208.507C481.019 205.064 480.29 193.001 480.29 193.001C477.573 193.001 476.442 193.876 475.457 192.145C475.184 191.671 474.619 190.596 473.907 189.266C473.853 189.174 473.798 189.083 473.743 188.974C471.828 185.421 469.148 180.337 469.148 180.337L466.266 179.736L462.054 186.933C462.054 186.933 462.619 188.336 463.276 189.994C463.276 189.994 463.312 190.067 463.367 190.213C463.859 191.215 465.774 195.279 465.573 195.716C465.354 196.19 461.197 201.055 461.032 201.31C460.887 201.583 458.333 210.985 458.333 210.985V210.985Z" fill="#FA8793"/>
<path d="M453.702 165.013C452.371 167.673 452.006 172.046 452.006 174.233C452.006 176.42 450.675 177.75 450.31 178.242C449.945 178.734 452.371 179.809 452.371 179.809L452.133 181.376L453.592 185.858C453.592 185.858 453.228 188.519 453.829 188.519C454.431 188.519 462.692 187.79 464.753 187.425C466.814 187.061 469.841 180.155 469.841 179.189C473.962 179.189 474.82 174.944 473.598 171.427C472.376 167.91 469.239 170.097 467.78 171.791C467.78 171.791 467.288 165.487 465.355 164.63C463.422 163.774 457.586 165.232 455.763 166.088C453.939 166.944 453.702 164.995 453.702 164.995V165.013Z" fill="#FA8793"/>
<path d="M441.447 255.901L451.769 262.57L462.09 263.518L480.856 201.693C480.856 201.693 473.689 205.683 468.71 206.539C463.732 207.396 457.021 203.806 457.021 203.806L446.808 222.173L441.429 255.883L441.447 255.901Z" fill="white"/>
<path d="M453.902 173.705C454.376 172.138 456.018 171.117 458.972 172.356C458.972 172.356 458.917 174.051 457.604 174.543C456.291 175.035 453.902 173.705 453.902 173.705V173.705Z" fill="white"/>
<path d="M454.486 172.666C454.358 173.322 454.668 173.923 455.234 174.069C455.799 174.215 456.419 173.814 456.601 173.14C456.729 172.629 456.565 172.101 456.2 171.846C455.453 171.919 454.887 172.229 454.486 172.666Z" fill="black"/>
<path d="M453.866 168.092C454.65 167.983 458.662 168.439 459.829 169.35C460.613 169.969 460.485 170.479 460.485 170.479C457.513 169.823 454.249 169.568 453.884 169.586C453.519 169.605 453.884 168.074 453.884 168.074L453.866 168.092Z" fill="black"/>
<path d="M452.115 181.376C452.115 181.376 456.091 181.449 457.294 181.321C457.294 181.321 457.86 184.874 453.574 185.858L452.115 181.376Z" fill="white"/>
<path d="M452.808 196.609C452.808 196.609 456.565 201.31 457.094 202.786C457.622 204.244 458.042 208.271 458.334 210.985C458.334 210.985 460.887 201.583 461.033 201.31C461.197 201.055 465.355 196.19 465.574 195.716C465.774 195.279 463.859 191.215 463.367 190.213C463.312 190.067 463.276 189.994 463.276 189.994C463.276 189.994 461.689 190.213 460.449 190.432C459.209 190.65 452.808 196.609 452.808 196.609V196.609Z" fill="#F2B52F"/>
<path d="M462.948 268.638C457.331 268.219 446.371 265.559 440.553 261.987C434.736 258.416 424.141 250.89 421.934 247.465L423.046 243.602C423.046 243.602 432.675 251.364 436.122 253.095C439.569 254.826 449.435 260.511 456.346 262.333C463.258 264.155 472.722 264.866 477.281 263.645L477.172 267.909C471.792 269.44 467.069 268.929 462.911 268.62L462.948 268.638Z" fill="black"/>
<path d="M448.522 197.247C448.522 197.247 450.51 196.827 452.808 196.609C452.808 196.609 459.209 190.65 460.449 190.432C460.449 190.432 458.443 190.742 457.422 191.088C457.075 191.215 456.309 191.598 455.306 192.181C453.337 193.347 450.51 195.26 448.522 197.247Z" fill="white"/>
<path d="M473.908 189.266C474.619 190.596 475.184 191.671 475.458 192.145C476.443 193.876 477.573 193.001 480.29 193.001C479.488 191.27 475.731 189.849 473.908 189.266Z" fill="#4D4D4D"/>
<path d="M473.907 189.266C475.731 189.849 479.488 191.27 480.29 193.001C481.384 195.333 482.314 196.973 483.573 206.722L484.685 207.542L485.816 208.38L489.645 211.186C489.645 211.186 488.971 207.414 487.366 203.168C486.272 200.308 483.919 195.242 482.205 192.163C481.366 190.669 480.691 189.648 480.363 189.539C479.415 189.229 476.588 188.992 473.743 188.974" fill="white"/>
<path d="M473.434 215.523C474.054 214.684 479.105 207.851 479.689 207.633C480.309 207.432 483.573 206.722 483.573 206.722C482.315 196.973 481.385 195.333 480.29 193.001C480.856 195.752 473.981 214.065 473.434 215.523Z" fill="#F2B52F"/>
<path d="M473.434 215.523C473.434 215.523 473.415 215.577 473.397 215.596" stroke="white" stroke-width="0.25" stroke-miterlimit="10"/>
<path d="M370.799 209.564C382.379 219.076 397.26 228.715 401.4 229.407C405.539 230.1 422.627 229.681 422.627 229.681C422.627 229.681 424.013 238.354 424.688 239.046C422.9 240.413 422.481 242.217 423.046 243.584C423.593 244.968 436.268 254.589 441.447 255.901C441.447 255.901 439.733 244.476 439.733 243.019C439.733 241.561 445.641 231.594 447.629 226.219C449.598 220.825 449.981 220.169 451.823 218.456C453.647 216.762 456.784 213.518 458.297 211.04C458.315 211.004 458.334 210.985 458.334 210.985C458.042 208.27 457.622 204.244 457.094 202.786C456.565 201.31 452.808 196.609 452.808 196.609C450.51 196.827 448.522 197.247 448.522 197.247C450.51 195.26 453.337 193.347 455.306 192.181C450.601 191.798 445.787 193.803 439.021 193.839C432.274 193.876 424.688 194.696 420.147 197.174C415.606 199.652 412.433 202.002 411.594 202.002C410.755 202.002 407.327 202.276 405.266 200.763C403.187 199.233 400.433 197.994 395.199 196.354C389.966 194.696 379.753 193.456 377 193.73C371.766 198.558 370.252 205.719 370.799 209.564V209.564Z" fill="#0078D9"/>
<path d="M485.816 208.38C487.767 214.903 497.396 240.613 497.396 240.613C497.396 240.613 496.867 242.563 492.618 244.148C488.387 245.734 489.445 252.093 489.263 253.15C489.08 254.207 488.734 253.86 483.081 255.61C477.427 257.377 479.907 263.919 479.561 264.611C479.196 265.322 475.312 265.139 474.965 265.85C474.892 265.978 474.929 266.306 475.057 266.743C475.531 268.656 477.482 272.938 479.196 276.09C480.801 279.042 483.135 282.796 484.922 283.962C485.488 284.345 486.017 284.454 486.436 284.199C488.205 283.142 489.627 286.313 492.983 286.313C496.338 286.313 497.743 284.017 497.743 281.375C497.743 278.733 499.147 277.311 502.338 278.022C505.511 278.733 509.049 277.676 514.866 276.783C520.702 275.908 523.164 271.845 523 268.674C522.818 265.504 522.471 231.612 522.289 230.027C522.106 228.442 513.809 218.383 512.569 215.741C511.347 213.099 505.858 201.62 500.752 198.449C495.627 195.279 488.205 193.693 482.205 192.145" fill="#0078D9"/>
<path d="M474.965 265.85C475.312 265.139 479.196 265.322 479.561 264.611C479.907 263.919 477.427 257.377 483.08 255.61C488.734 253.86 489.08 254.207 489.262 253.15C489.445 252.093 488.387 245.734 492.618 244.148C496.867 242.563 497.396 240.613 497.396 240.613C497.396 240.613 487.767 214.903 485.816 208.38L484.685 207.542C485.761 212.206 489.755 229.899 489.645 232.45C489.518 235.402 490.174 243.328 489.645 244.112C489.135 244.895 482.406 252.038 480.327 254.298C478.248 256.539 477.464 258.507 477.573 261.04C477.664 263.591 477.336 263.372 475.239 264.265C473.999 264.793 474.965 265.85 474.965 265.85V265.85Z" fill="black"/>
<path d="M483.099 255.61H483.081" stroke="white" stroke-width="0.25" stroke-miterlimit="10"/>
<path d="M489.263 250.817V250.835" stroke="white" stroke-width="0.25" stroke-miterlimit="10"/>
<path d="M365.42 207.706C365.493 208.398 368.538 208.999 370.799 209.564C370.252 205.719 371.766 198.558 377 193.73C377 193.73 373.134 193.22 371.857 193.019C370.781 193.712 369.632 195.169 368.593 196.973C367.48 198.905 366.496 201.237 365.93 203.405C365.493 205.009 365.292 206.521 365.42 207.706Z" fill="black"/>
<path d="M469.659 268.948C469.823 270.515 470.078 272.228 470.589 274.086C471.519 277.475 473.269 281.356 476.68 285.748C477.117 286.294 477.573 286.859 478.066 287.424C478.777 288.226 482.151 285.62 484.922 283.962C483.135 282.796 480.801 279.042 479.196 276.091C477.482 272.938 475.531 268.656 475.057 266.743H475.038C473.488 266.743 471.592 267.381 469.659 268.948Z" fill="black"/>
<path d="M311.622 194.896C315.507 195.661 327.907 194.768 330.351 195.151C332.813 195.534 335.275 198.249 339.141 198.504C343.025 198.759 345.615 199.287 346.636 200.964C346.855 201.31 346.855 201.601 346.727 201.838C346.18 202.84 343.262 203.205 340.691 203.405C337.463 203.679 336.57 207.031 337.992 209.746C340.308 207.414 343.153 207.414 346.764 207.031C350.393 206.649 352.071 205.355 356.338 203.405C356.411 203.369 356.484 203.332 356.557 203.296H356.575C360.769 201.328 365.055 197.72 368.593 196.973C369.632 195.169 370.781 193.712 371.857 193.019C371.857 193.019 369.377 192.436 367.699 192.436C366.021 192.436 350.265 190.887 345.469 190.377C340.691 189.849 330.223 190.377 327.652 190.377C325.081 190.377 314.595 191.015 308.139 191.27C308.139 191.27 307.738 194.112 311.622 194.896V194.896Z" fill="#FA8793"/>
<path d="M356.575 203.296C359.948 203.332 364.343 203.387 365.93 203.405C366.495 201.237 367.48 198.905 368.592 196.973C365.055 197.72 360.769 201.328 356.575 203.296Z" fill="#CF584C"/>
<path d="M325.828 204.827C326.357 205.61 330.88 205.355 333.451 205.355C336.023 205.355 336.041 203.405 337.591 201.091C339.141 198.759 340.563 198.886 343.664 200.453C344.667 200.964 345.688 201.437 346.727 201.838C346.855 201.601 346.855 201.31 346.636 200.964C345.615 199.287 343.025 198.759 339.141 198.504C335.275 198.249 332.813 195.534 330.351 195.151C330.351 195.151 325.318 204.061 325.828 204.827V204.827Z" fill="#CF584C"/>
<path d="M439.332 293.765C445.039 295.679 449.927 296.498 451.112 296.152C452.316 295.788 453.975 294.476 453.975 294.476C455.635 295.077 457.422 295.314 458.37 294.603C461.124 295.314 461.47 295.077 464.206 293.528C466.467 292.253 474.108 287.388 476.68 285.748C473.269 281.357 471.519 277.475 470.589 274.086C466.795 274.068 459.41 273.904 457.768 274.779C455.872 275.799 446.845 280.136 445.805 282.413C445.039 284.144 445.404 285.912 448.377 284.855C451.349 283.78 453.264 280.682 455.762 280.682C458.261 280.682 458.37 282.359 457.659 283.415C457.203 284.108 454.778 287.297 452.644 289.593C451.44 290.868 450.328 291.87 449.69 291.98C448.523 292.216 446.097 291.852 443.964 291.743C442.796 291.706 441.739 291.724 440.991 291.98C438.857 292.708 439.332 293.765 439.332 293.765V293.765Z" fill="#FA8793"/>
<path d="M443.963 291.743C446.097 291.852 448.522 292.216 449.69 291.98C450.328 291.87 451.44 290.868 452.644 289.593C451.696 289.975 451.003 289.921 451.003 289.374C451.003 288.663 452.06 285.912 450.291 286.039C448.504 286.167 447.775 288.171 447.775 288.171C446.954 286.878 445.641 286.513 444.93 287.698C444.438 288.536 444.109 290.595 443.963 291.743V291.743Z" fill="#CF584C"/>
<path d="M462.09 263.518C464.479 265.358 472.102 264.811 475.239 264.265C477.336 263.372 477.664 263.591 477.573 261.04C477.464 258.507 478.248 256.539 480.327 254.298C482.406 252.038 489.135 244.895 489.645 244.112C490.174 243.328 489.518 235.402 489.645 232.45C489.755 229.899 485.761 212.206 484.685 207.542L483.573 206.722C483.573 206.722 480.308 207.432 479.688 207.633C479.105 207.851 474.053 214.684 473.433 215.523C473.415 215.559 473.415 215.577 473.397 215.596H473.379C472.175 221.171 470.242 232.25 469.968 238.172C469.713 244.076 466.157 244.476 465.099 248.285C464.06 252.093 462.218 255.245 462.09 263.518V263.518Z" fill="#0078D9"/>
<path d="M304.474 319.53C309.78 319.968 314.704 320.059 319.3 319.858C320.631 318.419 322.528 316.36 324.26 314.629C327.342 311.549 334.308 308.634 328.801 308.306C322.218 307.923 311.112 315.813 304.474 319.53Z" fill="#4D4D4D"/>
<path opacity="0.5" d="M468.199 173.978C468.382 172.101 470.424 171.081 471.628 171.791C472.831 172.502 472.649 174.233 471.5 175.581C470.351 176.93 469.257 178.515 469.64 177.203C470.023 175.891 470.059 174.925 468.819 175.217C467.962 175.417 468.145 174.67 468.218 173.996L468.199 173.978Z" fill="#CF584C"/>
<path d="M493.511 270.642C493.949 273.995 496.484 279.789 497.742 281.375C497.742 278.733 499.146 277.311 502.338 278.022C499.456 275.69 494.296 267.618 493.621 266.943C492.946 266.269 493.055 267.271 493.511 270.642V270.642Z" fill="#2E3192"/>
<path d="M492.618 244.148C492.618 244.148 498.873 249.469 501.116 250.927C503.378 252.403 503.378 251.729 503.141 250.599C502.922 249.469 499.657 244.076 497.396 240.613C497.396 240.613 496.867 242.563 492.618 244.148V244.148Z" fill="#2E3192"/>
<path d="M483.099 255.61C485.251 255.61 494.952 260.256 498.964 262.297C502.994 264.319 504.271 263.864 501.353 261.841C498.417 259.819 491.269 253.441 489.263 250.836C489.263 251.929 489.317 252.804 489.263 253.15C489.08 254.207 488.734 253.86 483.099 255.61Z" fill="#2E3192"/>
<path d="M418.815 229.753L422.627 229.681C422.627 229.681 430.213 220.716 431.307 219.805C432.401 218.894 431.854 216.707 431.672 213.792C431.49 210.876 434.772 203.205 435.319 200.107C435.319 200.107 432.201 204.681 430.943 207.669C429.666 210.676 427.368 216.78 426.201 218.511C425.052 220.242 418.815 229.753 418.815 229.753V229.753Z" fill="#2E3192"/>
<path d="M401.509 212.407C403.698 211.477 407.728 205.246 411.594 202.002C410.883 202.002 408.184 202.203 406.141 201.255H406.105C406.105 201.255 403.698 204.9 401.509 208.015C399.303 211.131 399.303 213.318 401.509 212.407V212.407Z" fill="#2E3192"/>
<path d="M423.302 240.613C423.302 240.613 426.493 242.909 428.791 244.476C431.089 246.043 433.314 246.499 431.089 245.223C428.882 243.93 427.131 241.433 424.688 239.046C424.068 239.538 423.594 240.067 423.302 240.613V240.613Z" fill="#2E3192"/>
<path d="M439.732 243.019C439.732 244.476 441.447 255.901 441.447 255.901C441.447 255.901 444.456 243.547 447.1 236.587C449.726 229.626 452.881 220.169 454.066 218.201C455.179 216.361 457.951 211.623 458.297 211.04C456.783 213.518 453.647 216.762 451.823 218.456C449.981 220.169 449.598 220.825 447.629 226.219C445.641 231.594 439.732 241.579 439.732 243.019V243.019Z" fill="#F2B52F"/>
<path d="M459.592 258.398C459.446 263.39 462.09 263.518 462.09 263.518C462.218 255.245 464.06 252.093 465.099 248.285C466.157 244.476 469.713 244.076 469.968 238.172C470.242 232.25 472.175 221.171 473.378 215.614C471.682 218.456 468.126 231.594 467.598 235.275C467.087 238.955 459.719 253.405 459.592 258.398V258.398Z" fill="#F2B52F"/>
<path d="M282.718 306.739C283.502 308.597 281.332 308.834 277.94 308.834C274.548 308.834 271.758 309.326 270.171 308.925C268.585 308.525 266.177 304.352 264.39 298.776C262.603 293.2 261.399 291.415 258.007 288.026C254.616 284.636 256.038 274.104 259.211 272.501C261.874 271.153 263.989 273.704 265.977 276.091C267.965 278.478 272.56 287.843 276.736 289.629C280.912 291.415 284.797 292.144 284.596 293.729C284.395 295.314 281.332 296.189 281.332 297.993C281.332 299.797 280.931 304.753 282.718 306.757V306.739Z" fill="black"/>
<path d="M297.125 189.94L248.689 193.165L297.125 196.39L300.353 427L303.58 196.39L352.016 193.165L303.58 189.94L300.353 13.994L297.125 189.94Z" fill="white"/>
<path d="M222.939 220.606H195.147C190.131 220.606 186.065 224.669 186.065 229.681V242.144C186.065 247.156 190.131 251.218 195.147 251.218H222.939C227.955 251.218 232.021 247.156 232.021 242.144V229.681C232.021 224.669 227.955 220.606 222.939 220.606Z" fill="#F2B52F"/>
<path d="M209.043 251.218L198.01 247.702C195.639 246.954 193.725 243.456 193.725 239.921V222.155C193.725 218.602 195.639 216.343 198.01 217.108L209.043 220.625V251.237V251.218Z" fill="#FBE9C1"/>
<path d="M209.043 251.218L220.076 247.702C222.447 246.954 224.362 243.456 224.362 239.921V222.155C224.362 218.602 222.447 216.343 220.076 217.108L209.043 220.625V251.237V251.218Z" fill="#F8DA97"/>
<path d="M372.824 83.381H350.247C344.396 83.381 339.652 88.1208 339.652 93.9677V116.526C339.652 122.373 344.396 127.112 350.247 127.112H372.824C378.675 127.112 383.419 122.373 383.419 116.526V93.9677C383.419 88.1208 378.675 83.381 372.824 83.381Z" fill="#0078D9"/>
<path d="M384.641 109.255L396.549 119.55C399.978 122.521 405.321 120.079 405.321 115.542V94.9698C405.321 90.4327 399.996 87.991 396.549 90.9611L384.641 101.256C382.197 103.37 382.197 107.16 384.641 109.255V109.255Z" fill="#0078D9"/>
<path d="M371.037 105.793L362.083 114.74L349.044 101.712C346.564 99.2337 346.564 95.2432 349.044 92.7651C351.524 90.287 355.518 90.287 357.998 92.7651L371.037 105.793V105.793Z" fill="#99C9F0"/>
<path d="M372.241 118.913L365.347 118.002L374.301 109.055L375.213 115.943C375.45 117.674 373.973 119.15 372.241 118.913Z" fill="#99C9F0"/>
<path d="M401.801 393.491C413.877 393.491 423.667 383.709 423.667 371.643C423.667 359.577 413.877 349.796 401.801 349.796C389.726 349.796 379.936 359.577 379.936 371.643C379.936 383.709 389.726 393.491 401.801 393.491Z" fill="#FA772F"/>
<path d="M405.357 375.525H397.935V374.267C397.935 372.609 398.118 371.37 398.501 370.587C398.865 369.803 399.558 369.184 400.543 368.746L401.911 368.145C402.932 367.689 403.443 367.052 403.443 366.232C403.443 365.758 403.279 365.339 402.95 365.011C402.622 364.683 402.203 364.519 401.728 364.519C400.415 364.519 399.777 365.43 399.777 367.234H392.884C392.884 364.81 393.449 362.824 394.562 361.294C395.382 360.164 396.458 359.271 397.789 358.597C399.102 357.923 400.47 357.595 401.893 357.595C404.391 357.595 406.506 358.415 408.221 360.073C409.935 361.731 410.792 363.79 410.792 366.232C410.792 369.256 409.57 371.37 407.108 372.609C406.306 373.01 405.813 373.356 405.649 373.648C405.467 373.939 405.394 374.559 405.394 375.525H405.357Z" fill="#FEE4D5"/>
<path d="M401.783 376.581C403.096 376.581 404.209 377.055 405.157 378.003C406.105 378.95 406.561 380.08 406.561 381.374C406.561 382.667 406.087 383.779 405.157 384.708C404.227 385.619 403.096 386.075 401.783 386.075C400.47 386.075 399.285 385.638 398.391 384.745C397.498 383.852 397.06 382.722 397.06 381.355C397.06 379.989 397.516 378.896 398.446 377.966C399.376 377.037 400.47 376.581 401.783 376.581Z" fill="#FEE4D5"/>
</g>
<defs>
<clipPath id="clip0_310_312">
<rect width="523" height="427" fill="white"/>
</clipPath>
</defs>
</svg>
