<svg width="12" height="12" viewBox="0 0 12 12" fill="none" xmlns="http://www.w3.org/2000/svg">
<path d="M11.3272 0.614265C11.4214 0.708546 11.495 0.811785 11.5478 0.923979C11.6011 1.0357 11.6277 1.16227 11.6277 1.3037L11.6277 10.6375C11.6277 10.9203 11.5303 11.1591 11.3357 11.3538C11.1414 11.548 10.9029 11.6451 10.6201 11.6451C10.3372 11.6451 10.1015 11.5508 9.91295 11.3623C9.72439 11.1737 9.63011 10.938 9.63011 10.6552L9.63011 3.72554L1.71051 11.6451C1.51017 11.8455 1.27729 11.9426 1.01189 11.9365C0.746962 11.9308 0.514324 11.8278 0.313977 11.6275C0.11363 11.4271 0.0132213 11.1914 0.0127503 10.9203C0.0132214 10.6493 0.11363 10.4136 0.313977 10.2132L8.21589 2.31132H1.28625C1.00341 2.31132 0.767704 2.21704 0.579142 2.02848C0.390581 1.83992 0.2963 1.60422 0.2963 1.32137C0.2963 1.03853 0.393409 0.799999 0.587628 0.60578C0.782318 0.41109 1.02108 0.313746 1.30393 0.313746L10.6377 0.313747C10.7792 0.313746 10.9057 0.34038 11.0175 0.393649C11.1296 0.446447 11.2329 0.519985 11.3272 0.614265Z" fill="white"/>
</svg>
