<svg width="17" height="16" viewBox="0 0 17 16" fill="none" xmlns="http://www.w3.org/2000/svg">
<path d="M15.7694 0.485628C15.8951 0.611336 15.9932 0.748988 16.0635 0.89858C16.1346 1.04754 16.1701 1.21631 16.1701 1.40487L16.1701 13.8499C16.1701 14.2271 16.0403 14.5454 15.7807 14.805C15.5217 15.064 15.2037 15.1935 14.8266 15.1935C14.4495 15.1935 14.1352 15.0677 13.8838 14.8163C13.6324 14.5649 13.5066 14.2506 13.5066 13.8735L13.5066 4.63399L2.94719 15.1935C2.68006 15.4606 2.36956 15.5901 2.01569 15.5819C1.66245 15.5743 1.35227 15.437 1.08514 15.1699C0.818011 14.9028 0.684132 14.5885 0.683504 14.2271C0.684132 13.8657 0.818011 13.5514 1.08514 13.2843L11.621 2.74837L2.3815 2.74837C2.00438 2.74837 1.69011 2.62266 1.43869 2.37125C1.18728 2.11983 1.06157 1.80556 1.06157 1.42844C1.06157 1.05132 1.19105 0.733273 1.45001 0.474315C1.70959 0.214728 2.02795 0.0849361 2.40507 0.0849361L14.8502 0.0849364C15.0387 0.0849364 15.2075 0.120448 15.3564 0.191473C15.506 0.26187 15.6437 0.35992 15.7694 0.485628V0.485628Z" fill="#0078D9"/>
</svg>
