<svg width="142" height="142" viewBox="0 0 142 142" fill="none" xmlns="http://www.w3.org/2000/svg">
<circle cx="71" cy="71" r="50" fill="#F2B52F" fill-opacity="0.15"/>
<circle cx="71" cy="71" r="68.5" stroke="#F2B52F" stroke-opacity="0.05" stroke-width="5"/>
<g clip-path="url(#clip0_315_3062)">
<path d="M70.9867 102.973C88.6524 102.973 102.973 88.6524 102.973 70.9867C102.973 53.3209 88.6524 39 70.9867 39C53.3209 39 39 53.3209 39 70.9867C39 88.6524 53.3209 102.973 70.9867 102.973Z" fill="#FA772F"/>
<path d="M76.2154 76.669H65.3575V74.8283C65.3575 72.4006 65.6243 70.5865 66.1845 69.4393C66.7181 68.2922 67.7318 67.3852 69.1724 66.7449L71.1733 65.8645C72.6672 65.1976 73.4142 64.2639 73.4142 63.0634C73.4142 62.3697 73.1741 61.7561 72.6939 61.2759C72.2137 60.7957 71.6001 60.5556 70.9065 60.5556C68.9857 60.5556 68.052 61.8895 68.052 64.5306H57.9678C57.9678 60.9825 58.7948 58.0746 60.4221 55.8337C61.6226 54.1797 63.1966 52.8724 65.1441 51.8854C67.0649 50.8983 69.0657 50.4181 71.1466 50.4181C74.8015 50.4181 77.8961 51.6186 80.4038 54.0463C82.9115 56.4739 84.1654 59.4885 84.1654 63.0634C84.1654 67.4919 82.3779 70.5865 78.7764 72.4006C77.6026 72.9875 76.8823 73.4944 76.6422 73.9212C76.3754 74.3481 76.2687 75.2551 76.2687 76.669H76.2154Z" fill="#FEE4D5"/>
<path d="M70.9598 78.243C72.8806 78.243 74.508 78.9367 75.8952 80.3239C77.2825 81.7112 77.9494 83.3652 77.9494 85.2593C77.9494 87.1534 77.2558 88.7808 75.8952 90.1413C74.5347 91.4752 72.8806 92.1422 70.9598 92.1422C69.039 92.1422 67.305 91.5019 65.9978 90.1947C64.6906 88.8875 64.0503 87.2335 64.0503 85.2326C64.0503 83.2318 64.7172 81.6311 66.0778 80.2706C67.4384 78.91 69.039 78.243 70.9598 78.243Z" fill="#FEE4D5"/>
</g>
<defs>
<clipPath id="clip0_315_3062">
<rect width="64" height="64" fill="white" transform="translate(39 39)"/>
</clipPath>
</defs>
</svg>
