<svg width="142" height="142" viewBox="0 0 142 142" fill="none" xmlns="http://www.w3.org/2000/svg">
<circle cx="71" cy="71" r="50" fill="#0078D9" fill-opacity="0.15"/>
<circle cx="71" cy="71" r="68.5" stroke="#0078D9" stroke-opacity="0.05" stroke-width="5"/>
<g clip-path="url(#clip0_315_3053)">
<path d="M71.3342 49.8733H49.5384C43.8892 49.8733 39.3096 54.4529 39.3096 60.1022V81.8979C39.3096 87.5472 43.8892 92.1268 49.5384 92.1268H71.3342C76.9835 92.1268 81.5631 87.5472 81.5631 81.8979V60.1022C81.5631 54.4529 76.9835 49.8733 71.3342 49.8733Z" fill="#0078D9"/>
<path d="M82.7425 74.8733L94.239 84.8205C97.5488 87.6902 102.707 85.3311 102.707 80.9473V61.0529C102.707 56.6691 97.5665 54.3099 94.239 57.1797L82.7425 67.1268C80.3834 69.1691 80.3834 72.8311 82.7425 74.8557V74.8733Z" fill="#0078D9"/>
<path d="M48.377 58.938C50.7672 56.5478 54.6388 56.5602 57.0166 58.938L69.6026 71.524L60.963 80.1636L48.377 67.5776C45.9867 65.1874 45.9992 61.3158 48.377 58.938Z" fill="#99C9F0"/>
<path d="M70.7711 84.2043L64.1162 83.3241L72.7606 74.6797L73.6409 81.3346C73.8697 83.0072 72.4437 84.4332 70.7711 84.2043Z" fill="#99C9F0"/>
</g>
<defs>
<clipPath id="clip0_315_3053">
<rect width="63.3803" height="42.2535" fill="white" transform="translate(39.3096 49.8733)"/>
</clipPath>
</defs>
</svg>
