<svg width="142" height="142" viewBox="0 0 142 142" fill="none" xmlns="http://www.w3.org/2000/svg">
<circle cx="71" cy="71" r="50" fill="#937FDD" fill-opacity="0.15"/>
<circle cx="71" cy="71" r="68.5" stroke="#937FDD" stroke-opacity="0.05" stroke-width="5"/>
<g clip-path="url(#clip0_315_3071)">
<path d="M90.3422 52.127H51.6578C44.6671 52.127 39 57.8215 39 64.846V82.281C39 89.3055 44.6671 95 51.6578 95H90.3422C97.3329 95 103 89.3055 103 82.281V64.846C103 57.8215 97.3329 52.127 90.3422 52.127Z" fill="#F2B52F"/>
<path d="M71.0179 95L55.6401 90.0696C52.3512 89.0157 49.6846 84.1388 49.6846 79.1727V54.2885C49.6846 49.3223 52.3512 46.1426 55.6401 47.1965L71.0179 52.1269V95Z" fill="#FBE9C1"/>
<path d="M71.0176 95L86.3954 90.0695C89.6842 89.0156 92.3509 84.1388 92.3509 79.1726V54.2884C92.3509 49.3222 89.6842 46.1604 86.3954 47.2143L71.0176 52.1447V95Z" fill="#F8DA97"/>
</g>
<defs>
<clipPath id="clip0_315_3071">
<rect width="64" height="48" fill="white" transform="translate(39 47)"/>
</clipPath>
</defs>
</svg>
