<svg width="269" height="200" viewBox="0 0 269 200" fill="none" xmlns="http://www.w3.org/2000/svg">
<g clip-path="url(#clip0_355_315)">
<path d="M178.266 199.881L31.4436 200C25.8845 200 21.3677 195.502 21.3677 189.942L188.333 189.814C188.333 195.374 183.835 199.89 178.275 199.89L178.266 199.881Z" fill="#3D5AC4"/>
<path d="M178.266 196.416L31.4437 196.535C27.1006 196.535 23.4159 193.792 21.9987 189.942H21.377C21.377 195.502 25.8937 200.009 31.4528 200L178.276 199.881C183.835 199.881 188.342 195.364 188.333 189.805H187.711C186.303 193.655 182.619 196.416 178.276 196.416H178.266Z" fill="#0078D9"/>
<path d="M114.336 193.234L95.3641 193.252C93.4989 193.252 91.9902 191.744 91.9902 189.888L117.701 189.869C117.701 191.734 116.192 193.243 114.336 193.243V193.234Z" fill="#27429C"/>
<path d="M179.738 189.814L29.9623 189.933L29.8892 99.5246C29.8892 94.3403 34.0859 90.1344 39.2702 90.1253L170.266 90.0247C175.45 90.0247 179.656 94.2215 179.665 99.4057L179.738 189.805V189.814Z" fill="#0078D9"/>
<path d="M171.903 97.8879H37.7251V182.061H171.903V97.8879Z" fill="#0D1E88"/>
<path d="M171.93 174.015H37.7524V182.061H171.93V174.015Z" fill="#151247"/>
<path d="M171.866 97.8879H37.6885V101.884H171.866V97.8879Z" fill="#151247"/>
<g opacity="0.16">
<path d="M82.4357 97.9062L37.7251 142.69L37.7525 182.116H37.8531L121.962 97.8788L82.4357 97.9062Z" fill="#0078D9"/>
</g>
<g opacity="0.16">
<path d="M55.0791 182.107L74.8926 182.088L159.002 97.8422L139.188 97.8605L55.0791 182.107Z" fill="#0078D9"/>
</g>
<g opacity="0.16">
<path d="M156.149 182.024L171.921 166.225L171.893 136.345L124.559 182.043L156.149 182.024Z" fill="#0078D9"/>
</g>
<path d="M179.738 133.839H29.8892V150.379H179.738V133.839Z" fill="#F2B52F"/>
<path d="M58.3432 133.839L51.12 150.379H38.228L45.4512 133.839H58.3432Z" fill="white"/>
<path d="M85.8369 133.839L78.6137 150.379H65.7217L72.9449 133.839H85.8369Z" fill="white"/>
<path d="M113.34 133.839L106.107 150.379H93.2153L100.439 133.839H113.34Z" fill="white"/>
<path d="M140.834 133.839L133.611 150.379H120.709L127.942 133.839H140.834Z" fill="white"/>
<path d="M168.328 133.839L161.104 150.379H148.212L155.436 133.839H168.328Z" fill="white"/>
<path d="M10.4783 111.329L6.117 111.493L3.56602 110.679C2.39568 110.304 1.11562 110.752 0.429878 111.777L0.109863 112.252L12.8647 119.301L15.3334 114.007L10.4875 111.319L10.4783 111.329Z" fill="#14103D"/>
<path d="M12.8554 119.42L0 112.316L0.44802 111.502C0.539453 111.338 0.740605 111.283 0.896041 111.374L13.4589 118.314L12.8463 119.42" fill="#14103D"/>
<path d="M15.324 114.017L18.6887 108.183L15.324 102.167L10.478 111.328L15.324 114.017Z" fill="#EB8175"/>
<path d="M41.7209 80.4699C41.7209 80.4699 23.5441 75.2491 21.7886 80.1591C20.0422 85.069 9.43604 106.784 9.43604 106.784L17.3541 110.917L29.2312 90.299L45.2045 88.9092L41.7301 80.4699H41.7209Z" fill="#14103D"/>
<path d="M26.9451 117.948L23.3884 120.216L20.7642 120.746C19.5573 120.993 18.6522 121.999 18.5516 123.224L18.5059 123.8L33.0802 123.782L32.6688 117.957H26.9542L26.9451 117.948Z" fill="#14103D"/>
<path d="M33.126 123.873L18.4419 123.891V122.959C18.4419 122.776 18.5882 122.63 18.7711 122.63L33.126 122.611V123.873" fill="#14103D"/>
<path d="M32.6599 117.957L33.1262 108.183L27.3202 107.534L26.9453 117.948L32.6599 117.957Z" fill="#EB8175"/>
<path d="M44.1804 79.6379L27.0459 80.4151C27.0459 80.4151 24.5772 80.5522 24.7509 86.3216C24.9155 92.0911 24.8972 115.306 24.8972 115.306L33.1262 115.589L34.6988 91.2773L51.8516 91.067C55.4632 91.0213 58.8279 88.9458 60.2634 85.6268C60.812 84.3558 61.0772 82.9295 60.7389 81.4391L44.1804 79.6471V79.6379Z" fill="#231C61"/>
<path d="M27.9239 76.1818C27.9239 77.8093 26.8267 78.0561 25.1992 78.0561C23.5717 78.0561 22.0356 77.8184 22.0356 76.1909C22.0356 74.5634 23.3523 73.2468 24.9706 73.2376C26.5981 73.2376 27.9148 74.5543 27.9239 76.1726V76.1818Z" fill="#E1AD9D"/>
<path d="M29.9904 77.8367H26.5891C25.7022 77.8367 24.9707 77.1235 24.9707 76.2275C24.9707 75.3406 25.693 74.6091 26.5799 74.6091H29.9812C30.8681 74.6091 31.5996 75.3223 31.5996 76.2183C31.5996 77.1052 30.8773 77.8367 29.9904 77.8367V77.8367Z" fill="#E1AD9D"/>
<path d="M29.853 78.1841L28.7192 72.6159L42.7084 71.089L45.5063 54.7408C45.7897 53.2596 47.9384 51.4126 49.4288 51.6961L48.999 51.5772C50.4802 51.8607 51.8517 53.5887 51.5683 55.0699L48.8436 74.6274C48.6424 75.6789 47.847 76.5201 46.8046 76.7761L29.8621 78.1841H29.853Z" fill="#C8C6F2"/>
<path d="M57.804 52.0618C58.0966 52.0892 58.38 52.1532 58.6452 52.2538L58.7823 52.3087C61.187 53.2504 62.8054 55.8197 62.9151 58.2335L60.7299 81.4209C46.2378 81.2929 44.1714 79.6288 44.1714 79.6288L45.3234 55.902C45.4972 53.6619 46.5303 51.5589 49.0722 51.3486L57.7949 52.0527L57.804 52.0618Z" fill="#D8D7FD"/>
<path d="M41.8396 78.0013C41.9493 79.6196 40.8704 79.9397 39.2429 80.0494C37.6245 80.1591 36.0702 80.0219 35.9604 78.4036C35.8507 76.7852 37.0759 75.3772 38.6943 75.2674C40.3126 75.1577 41.7207 76.3829 41.8304 78.0013H41.8396Z" fill="#EB8175"/>
<path d="M44.0157 79.5191L40.6235 79.7476C39.7366 79.8116 38.9594 79.135 38.9046 78.2481C38.8406 77.3612 39.5172 76.5841 40.4041 76.5292L43.7962 76.3006C44.6831 76.2366 45.4603 76.9132 45.5152 77.8001C45.5792 78.687 44.9026 79.4642 44.0157 79.5191Z" fill="#EB8175"/>
<path d="M43.9057 79.8756L42.4062 74.3897L57.6481 71.9393L56.7795 57.7581C56.9623 56.2586 58.6081 54.5671 60.1076 54.7499C61.6071 54.9328 63.0883 56.5603 62.9055 58.0689L64.0027 75.0571C63.8747 76.1269 63.1341 77.0138 62.11 77.3338L43.9057 79.8665V79.8756Z" fill="#D8D7FD"/>
<path d="M17.5278 61.0405L34.1594 62.6132C34.708 62.668 35.1469 63.0886 35.2109 63.6372L36.9573 78.623C37.0396 79.3545 36.427 79.9854 35.6955 79.9122L18.7805 78.3213C18.2227 78.2664 17.7838 77.8276 17.729 77.279L16.2569 62.3114C16.1838 61.58 16.7964 60.9674 17.5278 61.0405V61.0405Z" fill="#091218"/>
<path d="M16.5677 60.9491L33.1994 62.5217C33.748 62.5766 34.1868 62.9972 34.2417 63.5458L35.9881 78.5316C36.0703 79.2631 35.4577 79.8939 34.7263 79.8208L17.8112 78.2299C17.2535 78.175 16.8146 77.7361 16.7597 77.1875L15.2877 62.22C15.2145 61.4885 15.8271 60.8759 16.5586 60.9491H16.5677Z" fill="#1B2934"/>
<path d="M36.4911 78.7236L47.8562 79.7934C48.2037 79.83 48.4597 80.1317 48.4231 80.4791C48.3865 80.8266 48.0848 81.0826 47.7374 81.046L35.6865 79.958L36.4911 78.7236V78.7236Z" fill="#091218"/>
<path d="M26.1043 70.0467C26.0129 71.0433 25.126 71.7839 24.1202 71.6924C23.1236 71.601 22.383 70.7141 22.4744 69.7084C22.5659 68.7117 23.4528 67.9711 24.4585 68.0626C25.4551 68.154 26.1957 69.0409 26.1043 70.0467Z" fill="white"/>
<path d="M56.2497 61.0314L56.6245 71.6924L42.4067 74.3897L54.9422 70.4764L56.2497 61.0314Z" fill="#C8C6F2"/>
<path d="M48.7061 50.6446L49.657 53.1955C50.0044 54.119 50.8547 54.7499 51.8331 54.8139C53.6891 54.9419 55.0332 53.0584 54.3017 51.3395L52.6377 47.417L48.7152 50.6354L48.7061 50.6446Z" fill="#EB8175"/>
<path d="M49.5567 52.9212C49.5567 52.9212 54.238 52.0343 53.5523 47.9382C52.8665 43.842 48.4595 47.0421 48.4595 47.0421L48.8892 51.1292L49.5567 52.9212V52.9212Z" fill="#E16C5F"/>
<path d="M55.6368 46.8867C54.951 48.3496 53.8447 49.4834 52.5281 50.2057C50.544 51.3029 48.0844 51.4583 45.8718 50.4251C42.9093 49.0445 41.3001 45.9358 41.6933 42.8636C41.7847 42.123 41.995 41.3733 42.3242 40.6601C44.0431 36.9845 48.4136 35.3936 52.0983 37.1125C55.7739 38.8315 57.3557 43.2111 55.6368 46.8867V46.8867Z" fill="#EB8175"/>
<path d="M55.6369 46.8867C54.9511 48.3496 53.8448 49.4834 52.5281 50.2057C51.0652 48.4868 51.7052 45.2226 51.7052 45.2226L51.6412 44.802L51.2389 42.059C50.3155 42.2145 49.4651 42.3425 48.688 42.4431C44.8935 42.9642 42.7997 42.9642 41.6934 42.8636C41.7848 42.123 41.9951 41.3733 42.3242 40.6601C44.0432 36.9845 48.4137 35.3936 52.0984 37.1125C55.774 38.8315 57.3558 43.2111 55.6369 46.8867V46.8867Z" fill="#231C61"/>
<path d="M47.4351 40.6144L50.8729 45.6524L53.8445 42.3699L47.4351 40.6144Z" fill="#231C61"/>
<path d="M50.5532 43.8603C50.0686 44.9026 50.5166 46.137 51.5589 46.6215C52.6012 47.1061 53.8356 46.6581 54.3202 45.6158C54.8048 44.5735 54.3568 43.3391 53.3144 42.8545C52.2721 42.3699 51.0377 42.8179 50.5532 43.8603Z" fill="#EB8175"/>
<path d="M40.8974 42.5528C40.8974 42.5528 39.3065 36.7651 43.0644 33.1718C46.164 30.2185 51.2202 30.4105 53.9723 33.693C55.2615 35.2382 56.3039 37.5514 56.3953 41.0441L40.8974 42.5528V42.5528Z" fill="#F2B52F"/>
<path d="M41.5102 42.4522L41.4644 38.8406C41.4553 37.8166 42.2416 36.9754 43.2657 36.9297C44.2714 36.884 45.14 37.6246 45.2406 38.6303L45.6063 42.2419L45.2223 42.2785L44.8566 38.6669C44.7743 37.8714 44.0794 37.2771 43.2839 37.3046C42.4702 37.3411 41.8302 38.0177 41.8393 38.8315L41.885 42.4431H41.501L41.5102 42.4522Z" fill="#F1AB00"/>
<path d="M39.5353 43.4214C39.1422 43.4214 38.813 43.1288 38.7764 42.7357C38.7399 42.3151 39.0416 41.9402 39.4622 41.9036L56.3224 40.2853C56.7338 40.2487 57.1178 40.5504 57.1544 40.971C57.191 41.3916 56.8893 41.7665 56.4687 41.803L39.6085 43.4214C39.6085 43.4214 39.5628 43.4214 39.5353 43.4214V43.4214Z" fill="white"/>
<path d="M230.114 163.019L218.288 174.674L219.988 176.4L231.815 164.745L230.114 163.019Z" fill="#3D5AC4"/>
<path d="M230.108 150.559L218.281 162.213L219.982 163.939L231.809 152.284L230.108 150.559Z" fill="#3D5AC4"/>
<path d="M230.102 138.098L218.275 149.753L219.976 151.478L231.802 139.824L230.102 138.098Z" fill="#3D5AC4"/>
<path d="M230.11 125.644L218.284 137.298L219.984 139.024L231.811 127.37L230.11 125.644Z" fill="#3D5AC4"/>
<path d="M230.104 113.183L218.277 124.838L219.978 126.563L231.805 114.909L230.104 113.183Z" fill="#3D5AC4"/>
<path d="M230.113 100.729L218.287 112.383L219.987 114.109L231.814 102.455L230.113 100.729Z" fill="#3D5AC4"/>
<path d="M230.107 88.2682L218.28 99.9228L219.981 101.649L231.808 89.9941L230.107 88.2682Z" fill="#3D5AC4"/>
<path d="M230.116 75.8141L218.29 87.4686L219.99 89.1944L231.817 77.5399L230.116 75.8141Z" fill="#3D5AC4"/>
<path d="M230.11 63.3442L218.283 74.9988L219.984 76.7246L231.811 65.07L230.11 63.3442Z" fill="#3D5AC4"/>
<path d="M230.104 50.8836L218.277 62.5381L219.978 64.2639L231.804 52.6094L230.104 50.8836Z" fill="#3D5AC4"/>
<path d="M230.113 38.4294L218.286 50.0839L219.987 51.8097L231.814 40.1552L230.113 38.4294Z" fill="#3D5AC4"/>
<path d="M230.95 161.863H219.128V164.286H230.95V161.863Z" fill="#3D5AC4"/>
<path d="M230.95 149.401H219.128V151.824H230.95V149.401Z" fill="#3D5AC4"/>
<path d="M230.95 136.939H219.128V139.362H230.95V136.939Z" fill="#3D5AC4"/>
<path d="M230.95 124.486H219.128V126.909H230.95V124.486Z" fill="#3D5AC4"/>
<path d="M230.95 112.023H219.128V114.446H230.95V112.023Z" fill="#3D5AC4"/>
<path d="M230.95 99.5703H219.128V101.993H230.95V99.5703Z" fill="#3D5AC4"/>
<path d="M230.95 87.108H219.128V89.5309H230.95V87.108Z" fill="#3D5AC4"/>
<path d="M230.95 74.6548H219.128V77.0778H230.95V74.6548Z" fill="#3D5AC4"/>
<path d="M230.95 62.1926H219.128V64.6155H230.95V62.1926Z" fill="#3D5AC4"/>
<path d="M230.95 49.7303H219.128V52.1533H230.95V49.7303Z" fill="#3D5AC4"/>
<path d="M220.344 41.2819H217.921V178.906H220.344V41.2819Z" fill="#5571E9"/>
<path d="M232.166 41.2819H229.743V178.906H232.166V41.2819Z" fill="#5571E9"/>
<path d="M236.582 175.533H213.029V200H236.582V175.533Z" fill="#231C61"/>
<path d="M218.68 17.9757H230.987C233.154 17.9757 234.919 19.7403 234.919 21.9073V37.3503C234.919 39.5172 233.154 41.2819 230.987 41.2819H218.68C216.513 41.2819 214.749 39.5172 214.749 37.3503V21.9073C214.749 19.7403 216.513 17.9757 218.68 17.9757Z" fill="#3D5AC4"/>
<path d="M216.586 23.5897H224.514C226.159 23.5897 227.494 24.9246 227.494 26.5704V31.5169C227.494 33.1627 226.159 34.4976 224.514 34.4976H216.586V23.5988V23.5897Z" fill="#2F4DAB"/>
<path d="M142.041 42.2164L140.174 42.8594L149.637 70.3423L151.504 69.6993L142.041 42.2164Z" fill="#231C61"/>
<path d="M133.736 38.6964L115.285 63.6134L116.872 64.7887L135.323 39.8716L133.736 38.6964Z" fill="#231C61"/>
<path d="M105.159 78.1761L124.223 103.101C126.321 105.845 130.247 106.368 132.99 104.269L157.915 85.2058C160.659 83.1075 161.182 79.1824 159.083 76.4388L140.02 51.5137C137.921 48.7701 133.996 48.2471 131.253 50.3454L106.328 69.4091C103.584 71.5074 103.061 75.4326 105.159 78.1761Z" fill="#FA772F"/>
<path d="M129.743 100.923C128.052 100.923 126.379 100.165 125.272 98.7199L109.674 78.3213C108.76 77.1327 108.366 75.6515 108.568 74.1611C108.769 72.6708 109.537 71.345 110.725 70.4398L131.124 54.8414C133.584 52.9579 137.122 53.4333 139.006 55.8928L154.604 76.2915C156.487 78.751 156.012 82.2895 153.552 84.173L133.154 99.7714C132.139 100.549 130.932 100.923 129.743 100.923V100.923ZM134.534 54.7042C133.556 54.7042 132.578 55.0151 131.746 55.646L111.347 71.2444C110.369 71.9942 109.738 73.0731 109.582 74.2983C109.427 75.5235 109.738 76.7304 110.488 77.7087L126.086 98.1073C127.631 100.128 130.53 100.512 132.541 98.9668L152.94 83.3684C153.918 82.6186 154.549 81.5397 154.705 80.3145C154.86 79.0893 154.549 77.8824 153.799 76.9041L138.201 56.5054C137.296 55.326 135.924 54.6951 134.534 54.6951V54.7042Z" fill="#231C61"/>
<path d="M133.757 86.6051C133.263 90.3081 127.649 89.5584 128.143 85.8554C128.637 82.1249 134.26 82.8746 133.757 86.6051ZM136.171 65.9322L133.967 81.4849L129.24 80.854C129.935 75.624 130.52 70.5312 131.224 65.2647L136.171 65.923V65.9322Z" fill="#231C61"/>
<path d="M138.411 44.8661C142.779 44.8661 146.32 41.3251 146.32 36.9571C146.32 32.5891 142.779 29.0482 138.411 29.0482C134.043 29.0482 130.502 32.5891 130.502 36.9571C130.502 41.3251 134.043 44.8661 138.411 44.8661Z" fill="#231C61"/>
<path d="M143.998 36.9571C143.998 40.0476 141.492 42.5528 138.402 42.5528C135.311 42.5528 132.806 40.0476 132.806 36.9571C132.806 33.8667 135.311 31.3615 138.402 31.3615C141.492 31.3615 143.998 33.8667 143.998 36.9571Z" fill="#373482"/>
<path d="M170.632 1.20691H168.209V17.9665H170.632V1.20691Z" fill="#3D5AC4"/>
<path d="M155.6 1.20691H153.177V17.9665H155.6V1.20691Z" fill="#3D5AC4"/>
<path d="M185.618 1.20691H183.195V17.9665H185.618V1.20691Z" fill="#3D5AC4"/>
<path d="M202.268 1.20691H199.845V17.9665H202.268V1.20691Z" fill="#3D5AC4"/>
<path d="M217.793 1.20691H215.37V17.9665H217.793V1.20691Z" fill="#3D5AC4"/>
<path d="M233.903 1.20691H231.48V17.9665H233.903V1.20691Z" fill="#3D5AC4"/>
<path d="M249.712 1.20691H247.289V17.9665H249.712V1.20691Z" fill="#3D5AC4"/>
<path d="M168.535 0.377851L152.715 17.1421L154.477 18.8051L170.297 2.0408L168.535 0.377851Z" fill="#3D5AC4"/>
<path d="M184.356 0.375867L168.536 17.1401L170.298 18.8031L186.118 2.03881L184.356 0.375867Z" fill="#3D5AC4"/>
<path d="M200.177 0.373853L184.357 17.1381L186.119 18.8011L201.939 2.0368L200.177 0.373853Z" fill="#3D5AC4"/>
<path d="M215.989 0.37188L200.169 17.1361L201.931 18.7991L217.751 2.03483L215.989 0.37188Z" fill="#3D5AC4"/>
<path d="M231.81 0.369855L215.99 17.1341L217.752 18.7971L233.572 2.0328L231.81 0.369855Z" fill="#3D5AC4"/>
<path d="M247.622 0.367871L231.802 17.1321L233.564 18.7951L249.384 2.03082L247.622 0.367871Z" fill="#3D5AC4"/>
<path d="M267.358 19.1826H138.411C137.945 19.1826 137.524 18.9174 137.323 18.4968C137.122 18.0763 137.177 17.5825 137.469 17.2168L150.8 0.457164C151.029 0.164579 151.376 0 151.751 0H250.005C250.315 0 250.617 0.118863 250.846 0.338301L268.209 17.0979C268.565 17.4454 268.675 17.9665 268.492 18.4237C268.309 18.8809 267.861 19.1826 267.368 19.1826H267.358ZM140.916 16.7596H264.359L249.502 2.41382H152.327L140.916 16.7596V16.7596Z" fill="#5571E9"/>
<path d="M138.411 38.1732C137.744 38.1732 137.204 37.6337 137.204 36.9663V17.9757C137.204 17.3082 137.744 16.7688 138.411 16.7688C139.078 16.7688 139.618 17.3082 139.618 17.9757V36.9571C139.618 37.6246 139.078 38.164 138.411 38.164V38.1732Z" fill="#5571E9"/>
<path d="M156.926 197.806H136.436L137.99 193.801L139.901 188.845L141.611 184.438L143.522 179.492L145.47 174.472C145.899 173.357 147.472 173.357 147.902 174.472L149.84 179.492L151.76 184.438L153.461 188.845L155.381 193.801L156.926 197.806Z" fill="#F2B52F"/>
<path d="M151.76 184.438H141.611L143.522 179.492H149.84L151.76 184.438Z" fill="#FAFAFA"/>
<path d="M155.381 193.801H137.99L139.901 188.845H153.461L155.381 193.801Z" fill="#FAFAFA"/>
<path d="M158.681 197.806H134.79V199.771H158.681V197.806Z" fill="#FA772F"/>
<path d="M71.5736 197.806H51.0835L52.6379 193.801L54.5488 188.845L56.2586 184.438L58.1695 179.492L60.1171 174.472C60.5468 173.357 62.1194 173.357 62.5492 174.472L64.4875 179.492L66.4076 184.438L68.1083 188.845L70.0284 193.801L71.5736 197.806V197.806Z" fill="#F2B52F"/>
<path d="M66.4073 184.438H56.2583L58.1692 179.492H64.4872L66.4073 184.438Z" fill="#FAFAFA"/>
<path d="M70.0282 193.801H52.6377L54.5486 188.845H68.1081L70.0282 193.801Z" fill="#FAFAFA"/>
<path d="M73.3289 197.806H49.4375V199.771H73.3289V197.806Z" fill="#FA772F"/>
</g>
<defs>
<clipPath id="clip0_355_315">
<rect width="268.575" height="200" fill="white"/>
</clipPath>
</defs>
</svg>
