<svg width="30" height="20" viewBox="0 0 30 20" fill="none" xmlns="http://www.w3.org/2000/svg">
<g clip-path="url(#clip0_238_100)">
<path d="M15.1583 0H4.84167C2.16769 0 0 2.16769 0 4.84167V15.1583C0 17.8323 2.16769 20 4.84167 20H15.1583C17.8323 20 20 17.8323 20 15.1583V4.84167C20 2.16769 17.8323 0 15.1583 0Z" fill="#0078D9"/>
<path d="M20.5582 11.8333L25.9999 16.5417C27.5665 17.9 30.0082 16.7833 30.0082 14.7083V5.29167C30.0082 3.21667 27.5749 2.1 25.9999 3.45833L20.5582 8.16667C19.4415 9.13333 19.4415 10.8667 20.5582 11.825V11.8333Z" fill="#0078D9"/>
<path d="M4.29179 4.29064C5.42316 3.15927 7.25574 3.16516 8.38122 4.29064L14.3386 10.248L10.2492 14.3374L4.29179 8.38007C3.16042 7.2487 3.16631 5.41612 4.29179 4.29064Z" fill="#99C9F0"/>
<path d="M14.8917 16.25L11.7417 15.8333L15.8334 11.7417L16.25 14.8917C16.3584 15.6833 15.6834 16.3583 14.8917 16.25Z" fill="#99C9F0"/>
</g>
<defs>
<clipPath id="clip0_238_100">
<rect width="30" height="20" fill="white"/>
</clipPath>
</defs>
</svg>
