<svg width="22" height="22" viewBox="0 0 22 22" fill="none" xmlns="http://www.w3.org/2000/svg">
<g clip-path="url(#clip0_238_101)">
<path d="M10.9954 21.9908C17.068 21.9908 21.9908 17.068 21.9908 10.9954C21.9908 4.92281 17.068 0 10.9954 0C4.92281 0 0 4.92281 0 10.9954C0 17.068 4.92281 21.9908 10.9954 21.9908Z" fill="#FA772F"/>
<path d="M12.7926 12.9487H9.06024V12.316C9.06024 11.4814 9.15195 10.8578 9.34453 10.4635C9.52794 10.0692 9.87642 9.75739 10.3716 9.53729L11.0594 9.23467C11.573 9.00541 11.8297 8.68444 11.8297 8.27177C11.8297 8.03334 11.7472 7.82241 11.5821 7.65735C11.4171 7.49228 11.2061 7.40974 10.9677 7.40974C10.3074 7.40974 9.98646 7.86827 9.98646 8.77614H6.52002C6.52002 7.55647 6.8043 6.55689 7.3637 5.78657C7.77638 5.218 8.31744 4.76864 8.98688 4.42933C9.64716 4.09003 10.3349 3.92496 11.0502 3.92496C12.3066 3.92496 13.3704 4.33763 14.2324 5.17214C15.0944 6.00666 15.5254 7.04292 15.5254 8.27177C15.5254 9.79407 14.911 10.8578 13.673 11.4814C13.2695 11.6832 13.0219 11.8574 12.9394 12.0042C12.8477 12.1509 12.811 12.4627 12.811 12.9487H12.7926Z" fill="#FEE4D5"/>
<path d="M10.986 13.4898C11.6463 13.4898 12.2057 13.7282 12.6825 14.2051C13.1594 14.6819 13.3887 15.2505 13.3887 15.9016C13.3887 16.5527 13.1502 17.1121 12.6825 17.5798C12.2148 18.0383 11.6463 18.2676 10.986 18.2676C10.3257 18.2676 9.72964 18.0475 9.28029 17.5982C8.83093 17.1488 8.61084 16.5802 8.61084 15.8924C8.61084 15.2047 8.8401 14.6544 9.3078 14.1867C9.77549 13.719 10.3257 13.4898 10.986 13.4898Z" fill="#FEE4D5"/>
</g>
<defs>
<clipPath id="clip0_238_101">
<rect width="22" height="22" fill="white"/>
</clipPath>
</defs>
</svg>
