<svg width="30" height="22" viewBox="0 0 30 22" fill="none" xmlns="http://www.w3.org/2000/svg">
<g clip-path="url(#clip0_241_2)">
<path d="M23.6457 2.34982H5.82955C2.60998 2.34982 0 4.9598 0 8.17937V16.1704C0 19.39 2.60998 22 5.82955 22H23.6457C26.8653 22 29.4753 19.39 29.4753 16.1704V8.17937C29.4753 4.9598 26.8653 2.34982 23.6457 2.34982Z" fill="#F2B52F"/>
<path d="M14.746 22L7.66373 19.7402C6.14903 19.2572 4.9209 17.022 4.9209 14.7458V3.34054C4.9209 1.06439 6.14903 -0.392996 7.66373 0.090071L14.746 2.34984V22Z" fill="#FBE9C1"/>
<path d="M14.7456 22L21.8279 19.7402C23.3426 19.2572 24.5707 17.022 24.5707 14.7458V3.34054C24.5707 1.06439 23.3426 -0.384806 21.8279 0.0982602L14.7456 2.35803V22Z" fill="#F8DA97"/>
</g>
<defs>
<clipPath id="clip0_241_2">
<rect width="29.4753" height="22" fill="white"/>
</clipPath>
</defs>
</svg>
